<?xml version="1.0" encoding="UTF-8"?><svg id="a" xmlns="http://www.w3.org/2000/svg" viewBox="0 0 420.95 501.19"><defs><style>.b{fill:#fff;}.c{fill:none;stroke:#fff;stroke-miterlimit:10;stroke-width:20px;}</style></defs><rect class="b" x="-8.93" y="104.03" width="83.24" height="22.3" rx="11.15" ry="11.15" transform="translate(-71.87 56.85) rotate(-45)"/><rect class="b" x="23.12" y="123.7" width="58.49" height="22.3" rx="5.03" ry="5.03" transform="translate(110.69 2.47) rotate(45)"/><rect class="b" x="346.63" y="104.41" width="83.24" height="22.3" rx="11.15" ry="11.15" transform="translate(195.43 -240.69) rotate(45)"/><rect class="b" x="342.71" y="122.69" width="54.55" height="22.3" rx="5.03" ry="5.03" transform="translate(726.23 -33.14) rotate(135)"/><rect class="b" x="189.08" y="135.57" width="41.65" height="22.3" rx="11.15" ry="11.15" transform="translate(356.63 -63.19) rotate(90)"/><rect class="b" x="189.08" y="427.96" width="41.65" height="22.3" rx="11.15" ry="11.15" transform="translate(649.02 229.2) rotate(90)"/><rect class="b" x="334.51" y="282" width="41.65" height="22.3" rx="11.15" ry="11.15" transform="translate(710.67 586.3) rotate(180)"/><rect class="b" x="42.89" y="282" width="41.65" height="22.3" rx="11.15" ry="11.15" transform="translate(127.43 586.3) rotate(180)"/><rect class="b" x="185.53" y="64.14" width="48.76" height="22.3" rx="5.03" ry="5.03" transform="translate(285.2 -134.62) rotate(90)"/><path class="b" d="M262.71,0h-104.84c-5.68,0-10.29,4.61-10.29,10.29V53.19c0,5.68,4.61,10.29,10.29,10.29h104.84c5.68,0,10.29-4.61,10.29-10.29V10.29c0-5.68-4.61-10.29-10.29-10.29Zm-10.87,41.74h-83.48V20.97h83.48v20.78Z"/><circle class="c" cx="210.67" cy="293.15" r="198.04"/><path class="b" d="M299.17,189.48c-2.83,1.71-109.26,66.17-116.57,71.94-45.4,38.47,20.78,104.26,59.63,59.63,3.22-5.24,70.69-114.79,71.94-116.96,7.02-10.24-3.51-21.5-15-14.62Zm-73.19,117.34c-20.78,25.68-51.65-13.67-30.87-28.85,12.41-7.5,77.91-48.19,77.91-48.19,0,0-42.42,71.85-47.03,77.04Z"/></svg>